<?xml version="1.0" encoding="UTF-8"?>
<svg width="40px" height="26px" viewBox="0 0 40 26" version="1.1" xmlns="http://www.w3.org/2000/svg" xmlns:xlink="http://www.w3.org/1999/xlink">
    <!-- Generator: Sketch 51.3 (57544) - http://www.bohemiancoding.com/sketch -->
    <title>icon-velo</title>
    <desc>Created with Sketch.</desc>
    <defs></defs>
    <g id="Page-1" stroke="none" stroke-width="1" fill="none" fill-rule="evenodd">
        <g id="icon-velo" fill="#000000">
            <path d="M9.0101793,9.2253792 L9.18289572,9.2277468 L9.3558489,9.232482 L9.52892046,9.2395848 L9.7021104,9.2490552 L9.87530034,9.2608932 L10.0482535,9.2750988 L10.2210883,9.2904882 L10.3936864,9.309429 L10.5658109,9.3295536 L10.7373435,9.3520458 L10.9084026,9.3769056 L11.078633,9.404133 L11.2481532,9.4349118 L11.4167263,9.4668744 L11.5843524,9.5012046 L11.7509131,9.5379024 L11.9161715,9.5769678 L12.0801278,9.6195846 L12.242782,9.664569 L12.4038971,9.7107372 L12.5622896,9.7604568 L12.6721462,9.7959708 L12.7797536,9.8326686 L12.8862956,9.8705502 L12.9918906,9.9084318 L13.0965385,9.9474972 L13.2000026,9.9877464 L13.3025197,10.0279956 L13.4039714,10.0706124 L13.504476,10.1132292 L13.6039152,10.155846 L13.702289,10.2008304 L13.7997157,10.2458148 L13.896077,10.291983 L13.9913729,10.3381512 L14.0856034,10.3855032 L14.1788869,10.434039 L14.2711049,10.4837586 L14.3623759,10.5334782 L14.452463,10.5843816 L14.5416032,10.635285 L14.6296779,10.688556 L14.7168056,10.7406432 L14.8027495,10.795098 L14.8877463,10.8495528 L14.9716777,10.9051914 L15.0545437,10.96083 L15.1364627,11.0176524 L15.2171978,11.0756586 L15.296986,11.1336648 L15.3757087,11.1928548 L15.4533659,11.2520448 L15.5299578,11.3124186 L15.6056026,11.3739762 L15.6800636,11.4355338 L15.7535776,11.4970914 L15.8260262,11.5610166 L15.8974093,11.623758 L15.967727,11.6876832 L16.0369793,11.7527922 L16.1051662,11.819085 L16.1724061,11.884194 L16.2384621,11.9516706 L16.3034527,12.0191472 L16.3674963,12.0866238 L16.4303561,12.1552842 L16.4922688,12.2239446 L16.5529978,12.2937888 L16.6127797,12.363633 L16.6713778,12.434661 L16.7290288,12.505689 L16.7856145,12.576717 L16.8410163,12.6489288 L16.8954711,12.7223244 L16.9488605,12.79572 L17.0010661,12.8691156 L17.0523246,12.943695 L17.1025177,13.0182744 L17.151527,13.0928538 L17.1995893,13.168617 L17.2464678,13.2443802 L17.2923992,13.3201434 L17.3371469,13.3970904 L17.3809475,13.4740374 L17.4235643,13.5521682 L17.465234,13.630299 L17.50572,13.7084298 L17.5452589,13.7877444 L17.583614,13.8658752 L17.6210221,13.9451898 L17.6573648,14.0256882 L17.6925236,14.1050028 L17.7267355,14.1855012 L17.7597635,14.2659996 L17.7918445,14.3476818 L17.8227416,14.429364 L17.8526918,14.5110462 L17.8815765,14.5927284 L17.9092774,14.6744106 L17.9360313,14.7572766 L17.9617198,14.8401426 L17.9863428,14.9218248 L18.0099004,15.0058746 L18.0323926,15.0887406 L18.0539378,15.1727904 L18.0742991,15.2556564 L18.0937135,15.3397062 L18.111944,15.423756 L18.1292275,15.5078058 L18.1454455,15.5930394 L18.1605982,15.6770892 L18.1748038,15.7623228 L18.1878256,15.8463726 L18.1999003,15.9316062 L18.2109097,16.0168398 L18.2208536,16.1020734 L18.2298505,16.187307 L18.2376635,16.2725406 L18.2445296,16.3577742 L18.2504486,16.4430078 L18.2551838,16.5294252 L18.2589719,16.6146588 L18.2616947,16.6998924 L18.2634704,16.7863098 L18.2641807,16.8715434 L18.2638255,16.9579608 L18.2625233,17.0431944 L18.2601557,17.1296118 L18.2567227,17.2148454 L18.2523427,17.300079 L18.2468972,17.3864964 L18.2405047,17.47173 L18.2330467,17.5581474 L18.2246417,17.643381 L18.2151713,17.7286146 L18.2047539,17.8138482 L18.193271,17.8990818 L18.1808411,17.9843154 L18.1673458,18.069549 L18.1529035,18.1547826 L18.1373957,18.2400162 L18.1209409,18.3252498 L18.103539,18.4092996 L18.0850717,18.4945332 L18.0656574,18.578583 L18.045296,18.6626328 L18.0238693,18.7478664 L18.0014954,18.8319162 L17.9780562,18.9147822 L17.9536699,18.998832 L17.9283366,19.081698 L17.9020562,19.1657478 L17.8747105,19.2486138 L17.8464176,19.3314798 L17.8171778,19.4143458 L17.7869909,19.496028 L17.7557386,19.578894 L17.7236576,19.6605762 L17.6905112,19.7422584 L17.6564177,19.8227568 L17.6212589,19.904439 L17.5852714,19.9849374 L17.5482184,20.0654358 L17.5103368,20.1459342 L17.4713898,20.2252488 L17.4314957,20.3045634 L17.3906546,20.383878 L17.3488665,20.4631926 L17.3061313,20.5413234 L17.2624491,20.6194542 L17.2178198,20.697585 L17.1722435,20.7757158 L17.1257202,20.8526628 L17.0782498,20.9296098 L17.0298324,21.005373 L16.9804679,21.0811362 L16.9301564,21.1568994 L16.8788979,21.2326626 L16.8268107,21.307242 L16.7736581,21.3806376 L16.7196768,21.455217 L16.6646301,21.5286126 L16.6087547,21.6008244 L16.5519323,21.6730362 L16.4941629,21.745248 L16.4354464,21.8174598 L16.3759013,21.8884878 L16.3154091,21.958332 L16.2539699,22.0281762 L16.1915836,22.0980204 L16.1282503,22.1666808 L16.0640884,22.2353412 L15.9989794,22.3028178 L15.9330417,22.3702944 L15.866157,22.4365872 L15.7983253,22.5040638 L15.7295465,22.5691728 L15.659939,22.6342818 L15.5893846,22.698207 L15.5180014,22.7621322 L15.4456712,22.8260574 L15.3725124,22.8887988 L15.2984065,22.9503564 L15.2233536,23.011914 L15.147472,23.0722878 L15.0707618,23.1326616 L14.9931045,23.1918516 L14.9146186,23.2510416 L14.8351856,23.3090478 L14.7549239,23.3658702 L14.6737153,23.4226926 L14.5916779,23.479515 L14.5088119,23.5339698 L14.4249989,23.5884246 L14.3403572,23.6428794 L14.2548868,23.6961504 L14.1685878,23.7482376 L14.0813417,23.8003248 L13.993267,23.8512282 L13.9042453,23.9009478 L13.8145132,23.9506674 L13.7238341,23.9992032 L13.6324448,24.047739 L13.5401084,24.0939072 L13.4469433,24.1412592 L13.3528312,24.1862436 L13.2580088,24.231228 L13.1623578,24.2750286 L13.0657597,24.3176454 L12.9684514,24.3590784 L12.870196,24.4005114 L12.7712303,24.4419444 L12.6714359,24.4810098 L12.5706946,24.5200752 L12.4692429,24.5579568 L12.3669626,24.5946546 L12.2638536,24.6301686 L12.159916,24.6656826 L12.0551497,24.7000128 L11.9495547,24.7331592 L11.8432495,24.7663056 L11.7361156,24.7970844 L11.628153,24.8278632 L11.5193618,24.8574582 L11.4097419,24.8858694 L11.2994117,24.9142806 L11.1882529,24.9403242 L11.0762654,24.9663678 L10.9635677,24.9912276 L10.8500413,25.0149036 L10.7358046,25.0373958 L10.6206208,25.059888 L10.5048452,25.0800126 L10.3881225,25.1001372 L10.2706895,25.119078 L10.1525463,25.136835 L10.0335744,25.1534082 L9.91377384,25.1687976 L9.793263,25.184187 L9.67204188,25.1972088 L9.5499921,25.2102306 L9.42711366,25.2208848 L9.30364332,25.231539 L9.17922594,25.2410094 L9.05421666,25.249296 L8.92837872,25.2563988 L8.80171212,25.2623178 L8.67445362,25.267053 L8.54636646,25.2706044 L8.41745064,25.272972 L8.28794292,25.2741558 L8.15760654,25.2741558 L8.0264415,25.2741558 L7.89468456,25.2717882 L7.76209896,25.2682368 L7.62880308,25.2646854 L7.49290284,25.2587664 L7.35013656,25.2504798 L7.20713352,25.2398256 L7.06555104,25.2268038 L6.9255075,25.2102306 L6.78712128,25.190106 L6.65015562,25.1687976 L6.5147289,25.1439378 L6.3809595,25.1167104 L6.24872904,25.0871154 L6.11803752,25.0551528 L5.98888494,25.0208226 L5.86138968,24.9841248 L5.73543336,24.9438756 L5.61113436,24.9024426 L5.4883743,24.858642 L5.36727156,24.8124738 L5.24770776,24.7651218 L5.12980128,24.7142184 L5.01343374,24.6621312 L4.89872352,24.6088602 L4.78555224,24.5520378 L4.67403828,24.4940316 L4.56406326,24.4348416 L4.45574556,24.373284 L4.3489668,24.3105426 L4.24372698,24.2454336 L4.1400261,24.1791408 L4.03786416,24.1104804 L3.93735954,24.04182 L3.83827548,23.970792 L3.74073036,23.8985802 L3.64472418,23.8251846 L3.55013856,23.7506052 L3.45709188,23.674842 L3.36546576,23.597895 L3.27537858,23.5197642 L3.18671196,23.4404496 L3.09934752,23.361135 L3.01352202,23.2794528 L2.9289987,23.1977706 L2.84589594,23.1149046 L2.76409536,23.0308548 L2.68371534,22.946805 L2.6046375,22.8615714 L2.52686184,22.7763378 L2.45038836,22.6899204 L2.37521706,22.603503 L2.30134794,22.5159018 L2.22866262,22.4283006 L2.15727948,22.3395156 L2.08696176,22.2507306 L2.01794622,22.1619456 L1.95023286,22.0731606 L1.88358492,21.9831918 L1.8180024,21.8944068 L1.75372206,21.804438 L1.69050714,21.7144692 L1.62835764,21.6245004 L1.56739194,21.5345316 L1.50749166,21.4445628 L1.44853842,21.354594 L1.39017708,21.2634414 L1.27830798,21.0858714 L1.23959772,21.0219462 L1.20171612,20.958021 L1.16478156,20.892912 L1.12879404,20.827803 L1.09375356,20.762694 L1.05954174,20.6964012 L1.02627696,20.6301084 L0.99384084,20.5638156 L0.96223338,20.496339 L0.93157296,20.4288624 L0.90185958,20.3613858 L0.87285648,20.2927254 L0.84468204,20.224065 L0.81745464,20.1554046 L0.79093752,20.0867442 L0.76524906,20.0169 L0.74038926,19.9470558 L0.71576622,19.8760278 L0.67054506,19.7363394 L0.62780988,19.5954672 L0.5880342,19.4522274 L0.55121802,19.3089876 L0.51724296,19.1657478 L0.48610902,19.0213242 L0.45757944,18.8769006 L0.4317726,18.7312932 L0.4086885,18.5856858 L0.387972,18.4400784 L0.36985986,18.294471 L0.35411532,18.1488636 L0.34073838,18.0020724 L0.32961066,17.856465 L0.32085054,17.7108576 L0.31422126,17.566434 L0.30972282,17.4208266 L0.30735522,17.276403 L0.30711846,17.1319794 L0.30877578,16.9887396 L0.31232718,16.8454998 L0.31789104,16.7046276 L0.3252306,16.5625716 L0.33067608,16.4808894 L0.3370686,16.3980234 L0.34440816,16.3163412 L0.35293152,16.2358428 L0.36240192,16.1541606 L0.37281936,16.0736622 L0.38418384,15.9943476 L0.39661374,15.9138492 L0.40999068,15.8345346 L0.42443304,15.7564038 L0.43970406,15.678273 L0.4560405,15.6001422 L0.4732056,15.5220114 L0.49143612,15.4450644 L0.5104953,15.3693012 L0.53050152,15.2923542 L0.5513364,15.216591 L0.5732367,15.1420116 L0.59584728,15.0662484 L0.6194049,14.9928528 L0.64390956,14.9182734 L0.66924288,14.8448778 L0.69540486,14.772666 L0.7223955,14.6992704 L0.7502148,14.6282424 L0.77886276,14.5560306 L0.80833938,14.4850026 L0.83864466,14.4139746 L0.86966022,14.3441304 L0.90150444,14.2742862 L0.93417732,14.2056258 L0.96756048,14.1369654 L1.0017723,14.068305 L1.0366944,14.0008284 L1.07232678,13.9333518 L1.10866944,13.867059 L1.14572238,13.8007662 L1.1834856,13.7344734 L1.2219591,13.6693644 L1.26208992,13.6030716 L1.3415229,13.476405 L1.42450728,13.3497384 L1.50997764,13.2254394 L1.59805236,13.1023242 L1.68849468,12.9815766 L1.7813046,12.8631966 L1.87636374,12.7460004 L1.9736721,12.6311718 L2.07299292,12.517527 L2.17444458,12.4062498 L2.27779032,12.2973402 L2.38314852,12.1896144 L2.4904008,12.0842562 L2.5993104,11.9800818 L2.7099957,11.8770912 L2.82233832,11.777652 L2.93633826,11.6782128 L3.05175876,11.582325 L3.1687182,11.4864372 L3.2870982,11.392917 L3.40689876,11.3017644 L3.52788312,11.2117956 L3.65016966,11.1230106 L3.77352162,11.0365932 L3.89805738,10.9525434 L4.02365856,10.8684936 L4.15020678,10.7879952 L4.27782042,10.7074968 L4.40626272,10.629366 L4.5354153,10.552419 L4.66551492,10.4778396 L4.79620644,10.404444 L4.92760824,10.3322322 L5.05960194,10.262388 L5.19218754,10.1937276 L5.32524666,10.1274348 L5.45866092,10.061142 L5.5925487,9.9972168 L5.72679162,9.9356592 L5.8612713,9.8741016 L5.99586936,9.8149116 L6.13082256,9.7580892 L6.26577576,9.7012668 L6.41457942,9.640893 L6.47187534,9.6219522 L6.54349524,9.5982762 L6.62801856,9.5710488 L6.71751384,9.5414538 L6.77492814,9.5213292 L6.81576924,9.4822638 L6.86584398,9.4420146 L6.91970688,9.4065006 L6.97688442,9.3780894 L7.03666632,9.3544134 L7.09846068,9.3378402 L7.16179398,9.3260022 L7.32077832,9.3082452 L7.48520814,9.2904882 L7.65094014,9.2750988 L7.81785594,9.262077 L7.98571878,9.250239 L8.15464704,9.2407686 L8.32440396,9.2336658 L8.49498954,9.2289306 L8.66616702,9.2253792 L8.8379364,9.2241954 L9.0101793,9.2253792 Z M8.68262184,10.4920452 L8.52671538,10.4944128 L8.3715192,10.499148 L8.21715168,10.5062508 L8.06361282,10.5145374 L7.91113938,10.5251916 L7.75996812,10.5370296 L7.60998066,10.5512352 L7.53480936,10.5595218 L7.53019254,10.5618894 L7.4818935,10.593852 L7.4522985,10.611609 L7.39109604,10.641204 L7.3345104,10.66488 L7.28147616,10.6861884 L7.22725812,10.706313 L7.12343886,10.741827 L7.02092178,10.7749734 L6.93166326,10.8045684 L6.86998728,10.824693 L6.85672872,10.8282444 L6.74687208,10.8732288 L6.62340174,10.9241322 L6.50016816,10.9774032 L6.37705296,11.031858 L6.25441128,11.0863128 L6.13212474,11.1431352 L6.01031172,11.2023252 L5.88885384,11.2615152 L5.76810624,11.321889 L5.64795054,11.3846304 L5.52850512,11.4473718 L5.40976998,11.5124808 L5.29174512,11.5787736 L5.1746673,11.6462502 L5.05853652,11.7149106 L4.94335278,11.7847548 L4.82923446,11.8569666 L4.71629994,11.9291784 L4.60431246,12.0037578 L4.49374554,12.079521 L4.38436242,12.1552842 L4.27628148,12.233415 L4.1696211,12.3127296 L4.0642629,12.393228 L3.96056202,12.4749102 L3.85840008,12.55896 L3.75777708,12.6430098 L3.6588114,12.7282434 L3.56162142,12.8146608 L3.46620714,12.9034458 L3.37245018,12.9922308 L3.28070568,13.0833834 L3.19085526,13.174536 L3.10289892,13.2680562 L3.01707342,13.3627602 L2.93326038,13.4574642 L2.8514598,13.5545358 L2.77190844,13.6527912 L2.69448792,13.7510466 L2.619435,13.8516696 L2.54651292,13.9534764 L2.47595844,14.0552832 L2.40777156,14.1594576 L2.34112362,14.2659996 L2.30998968,14.3180868 L2.27861898,14.3713578 L2.24784018,14.4246288 L2.21777166,14.4778998 L2.18829504,14.5323546 L2.15941032,14.5868094 L2.13123588,14.642448 L2.10365334,14.6969028 L2.0766627,14.7525414 L2.05038234,14.80818 L2.02481226,14.8638186 L1.99983408,14.920641 L1.97556618,14.9774634 L1.95189018,15.0342858 L1.92892446,15.0911082 L1.90666902,15.1491144 L1.88512386,15.2071206 L1.8641706,15.2651268 L1.844046,15.3243168 L1.8245133,15.3835068 L1.80569088,15.4426968 L1.78757874,15.5018868 L1.77017688,15.5622606 L1.75360368,15.6226344 L1.73762238,15.6830082 L1.72246974,15.743382 L1.70802738,15.8049396 L1.6942953,15.8664972 L1.6812735,15.9292386 L1.66908036,15.99198 L1.6575975,16.0547214 L1.6469433,16.1174628 L1.63699938,16.181388 L1.62788412,16.2453132 L1.61947914,16.3092384 L1.61190282,16.3743474 L1.60515516,16.4394564 L1.59923616,16.5045654 L1.59414582,16.5708582 L1.58976576,16.637151 L1.58325486,16.76145 L1.57840128,16.8869328 L1.57520502,17.0124156 L1.57378446,17.1378984 L1.57402122,17.264565 L1.57615206,17.3912316 L1.5800586,17.5178982 L1.58574084,17.6445648 L1.59343554,17.7712314 L1.60302432,17.8967142 L1.61450718,18.022197 L1.62812088,18.1476798 L1.64362866,18.2731626 L1.66126728,18.3974616 L1.68091836,18.5205768 L1.70270028,18.643692 L1.72661304,18.7656234 L1.75277502,18.886371 L1.78106784,19.0059348 L1.8114915,19.1243148 L1.84428276,19.241511 L1.87920486,19.3575234 L1.91696808,19.4735358 L1.9357905,19.5279906 L1.9559151,19.584813 L1.97651322,19.6404516 L1.99770324,19.6949064 L2.01936678,19.750545 L2.0417406,19.8049998 L2.06470632,19.8582708 L2.08814556,19.9127256 L2.11229508,19.9648128 L2.13691812,20.0180838 L2.16213306,20.070171 L2.18805828,20.1210744 L2.21445702,20.1719778 L2.24144766,20.2228812 L2.26914858,20.2726008 L2.29732302,20.3223204 L2.32620774,20.3708562 L2.35556598,20.419392 L2.45891172,20.5839402 L2.51099892,20.6644386 L2.5643883,20.7461208 L2.61860634,20.827803 L2.67377142,20.9094852 L2.72976516,20.9899836 L2.78658756,21.070482 L2.84423862,21.1509804 L2.90283672,21.2314788 L2.96226348,21.3107934 L3.0225189,21.3912918 L3.08372136,21.4694226 L3.14587086,21.5475534 L3.20884902,21.6256842 L3.27265584,21.7026312 L3.33752808,21.7795782 L3.40322898,21.8553414 L3.46987692,21.9299208 L3.53735352,22.0045002 L3.60589554,22.0778958 L3.67526622,22.1512914 L3.74558394,22.2235032 L3.81696708,22.2945312 L3.88917888,22.3643754 L3.96233772,22.4330358 L4.0364436,22.5016962 L4.1116149,22.567989 L4.18773324,22.6342818 L4.26468024,22.6993908 L4.34281104,22.7621322 L4.4217705,22.8248736 L4.50179538,22.8864312 L4.58288568,22.9456212 L4.66492302,23.0048112 L4.7479074,23.0616336 L4.83207558,23.1172722 L4.9171908,23.171727 L5.00337144,23.224998 L5.0906175,23.2770852 L5.17892898,23.3268048 L5.26830588,23.3753406 L5.35886658,23.4226926 L5.4504927,23.467677 L5.54330262,23.5114776 L5.63729634,23.5540944 L5.73235548,23.5943436 L5.8287168,23.633409 L5.92626192,23.6701068 L6.02499084,23.7056208 L6.12514032,23.7387672 L6.2264736,23.7707298 L6.32910906,23.8003248 L6.4330467,23.828736 L6.5384049,23.8535958 L6.64518366,23.8784556 L6.7532646,23.899764 L6.86288448,23.9198886 L6.97392492,23.9376456 L7.0865043,23.953035 L7.20062262,23.9672406 L7.31627988,23.9778948 L7.43347608,23.9873652 L7.55422368,23.9932842 L7.6754448,23.9980194 L7.79784972,24.0027546 L7.91942598,24.0051222 L8.04029196,24.0074898 L8.1602109,24.0074898 L8.27941956,24.0074898 L8.39779956,24.006306 L8.5153509,24.0039384 L8.63219196,24.000387 L8.74808598,23.9968356 L8.86326972,23.9909166 L8.9776248,23.9849976 L9.09115122,23.976711 L9.20396736,23.9684244 L9.31583646,23.958954 L9.42699528,23.9494836 L9.53732544,23.9376456 L9.64682694,23.9258076 L9.75549978,23.9127858 L9.86346234,23.8985802 L9.97047786,23.8831908 L10.0767831,23.8678014 L10.1822597,23.8500444 L10.2869076,23.8322874 L10.3908452,23.8145304 L10.4938358,23.7944058 L10.5961162,23.7742812 L10.6975678,23.7529728 L10.7981908,23.7304806 L10.8979852,23.7079884 L10.9969508,23.6843124 L11.0952062,23.6594526 L11.192633,23.633409 L11.2891127,23.6073654 L11.3850005,23.580138 L11.4799412,23.5529106 L11.5740533,23.5233156 L11.6674552,23.4937206 L11.7599099,23.4641256 L11.8516544,23.4333468 L11.9425703,23.4013842 L12.0327758,23.3682378 L12.1220344,23.3350914 L12.2105826,23.3007612 L12.2983022,23.266431 L12.3851931,23.230917 L12.4712554,23.1942192 L12.556489,23.1575214 L12.6410123,23.1196398 L12.7245886,23.0817582 L12.8074546,23.0426928 L12.8894919,23.0036274 L12.9707006,22.9621944 L13.051199,22.9219452 L13.1308687,22.8805122 L13.2095914,22.8378954 L13.2876038,22.7952786 L13.364906,22.751478 L13.4412611,22.7076774 L13.5169059,22.662693 L13.5917221,22.6165248 L13.6657096,22.5715404 L13.7388684,22.5241884 L13.8111986,22.4768364 L13.8828185,22.4294844 L13.9536097,22.3809486 L14.0235723,22.3324128 L14.0927062,22.2826932 L14.1610115,22.2329736 L14.2286065,22.1820702 L14.2953728,22.1311668 L14.3613104,22.0790796 L14.4264194,22.0269924 L14.4906998,21.9749052 L14.5542698,21.9216342 L14.6170112,21.8671794 L14.678924,21.8139084 L14.7400081,21.7594536 L14.8002635,21.703815 L14.8598086,21.6481764 L14.9184067,21.5925378 L14.9762945,21.5357154 L15.0333537,21.478893 L15.0897026,21.4208868 L15.1451044,21.3640644 L15.199796,21.3048744 L15.2535405,21.2468682 L15.3065747,21.1876782 L15.3588987,21.1284882 L15.4102756,21.0681144 L15.4608239,21.0077406 L15.5106619,20.9473668 L15.5596712,20.8858092 L15.6078518,20.8242516 L15.6552038,20.762694 L15.7017272,20.7011364 L15.7474219,20.638395 L15.7924063,20.5756536 L15.836562,20.5129122 L15.8797707,20.448987 L15.9222691,20.3850618 L15.9639389,20.3211366 L16.00478,20.2572114 L16.0449108,20.1921024 L16.0840946,20.1269934 L16.1224497,20.0618844 L16.1600945,19.9955916 L16.1969107,19.9304826 L16.2327799,19.8641898 L16.2679387,19.797897 L16.3022689,19.7316042 L16.3357705,19.6641276 L16.3684433,19.596651 L16.4002876,19.5303582 L16.4314215,19.4628816 L16.4616084,19.3942212 L16.4909666,19.3267446 L16.5196146,19.2580842 L16.5473155,19.1906076 L16.5741878,19.1219472 L16.6003498,19.0532868 L16.6255647,18.9846264 L16.6500694,18.9147822 L16.6737454,18.8461218 L16.6964743,18.7762776 L16.718493,18.7076172 L16.7395646,18.637773 L16.759926,18.5679288 L16.7794587,18.4980846 L16.7980444,18.4282404 L16.8159197,18.3583962 L16.8328481,18.2873682 L16.8490661,18.217524 L16.8643372,18.1476798 L16.8788979,18.0766518 L16.8925116,18.0068076 L16.905415,17.9357796 L16.9173714,17.8647516 L16.9284991,17.7949074 L16.9387982,17.7238794 L16.948387,17.6528514 L16.9570287,17.5818234 L16.9648418,17.5119792 L16.9718262,17.4409512 L16.977982,17.3699232 L16.9833091,17.2988952 L16.9876891,17.2278672 L16.9913589,17.158023 L16.9940816,17.086995 L16.9960941,17.015967 L16.9971595,16.944939 L16.9975147,16.873911 L16.9969228,16.8040668 L16.9955022,16.7330388 L16.993253,16.6631946 L16.9900567,16.5921666 L16.9861502,16.5223224 L16.9812966,16.4512944 L16.9757327,16.3814502 L16.9692218,16.311606 L16.9618823,16.2417618 L16.9537141,16.1719176 L16.9447172,16.1020734 L16.9347733,16.0322292 L16.9241191,15.962385 L16.9125178,15.8937246 L16.9000879,15.8238804 L16.8868294,15.75522 L16.8726238,15.6853758 L16.8577079,15.6167154 L16.841845,15.548055 L16.8251534,15.4793946 L16.8076331,15.411918 L16.7891659,15.3432576 L16.7698699,15.275781 L16.7497453,15.2083044 L16.7287921,15.1408278 L16.7070101,15.0733512 L16.6842812,15.0058746 L16.6607236,14.9395818 L16.6362189,14.8721052 L16.6108856,14.8058124 L16.5847236,14.7395196 L16.557733,14.6744106 L16.5297953,14.6081178 L16.5010289,14.5430088 L16.4713156,14.4778998 L16.4408919,14.4127908 L16.4094028,14.3476818 L16.3772035,14.2837566 L16.3439387,14.2198314 L16.3099636,14.1559062 L16.2750415,14.091981 L16.2391724,14.0292396 L16.2024746,13.9664982 L16.1648297,13.9037568 L16.1263562,13.8410154 L16.0869357,13.7794578 L16.0466865,13.7179002 L16.0054903,13.6563426 L15.9634654,13.5959688 L15.9204934,13.5344112 L15.8765744,13.4752212 L15.8317084,13.4148474 L15.7860137,13.3556574 L15.739372,13.2964674 L15.6919016,13.2372774 L15.6433658,13.1792712 L15.5940014,13.121265 L15.5436899,13.0632588 L15.4924313,13.0064364 L15.4403441,12.949614 L15.3871915,12.8927916 L15.3332102,12.837153 L15.2781635,12.7815144 L15.2222882,12.7270596 L15.1654658,12.6726048 L15.107578,12.61815 L15.0488615,12.564879 L14.9890796,12.511608 L14.928469,12.458337 L14.866793,12.4062498 L14.80417,12.3541626 L14.7406,12.3032592 L14.6760829,12.2523558 L14.6105003,12.2026362 L14.5439708,12.1517328 L14.4764942,12.103197 L14.4080705,12.0546612 L14.3385815,12.0061254 L14.2681454,11.9587734 L14.1967622,11.9114214 L14.1243137,11.8652532 L14.0507997,11.819085 L13.9763387,11.7729168 L13.9009306,11.7291162 L13.8244571,11.6841318 L13.7470366,11.6403312 L13.6685507,11.5977144 L13.5889993,11.5550976 L13.5085009,11.5136646 L13.4269371,11.4722316 L13.3443079,11.4319824 L13.2607316,11.3917332 L13.1760899,11.3526678 L13.0903828,11.3136024 L13.0036102,11.2757208 L12.9158906,11.239023 L12.8271056,11.2023252 L12.7371368,11.1668112 L12.646221,11.1312972 L12.5542397,11.096967 L12.4613114,11.0638206 L12.3671993,11.0306742 L12.2720218,10.9987116 L12.1769627,10.966749 L12.0379846,10.9241322 L11.897941,10.8826992 L11.7560034,10.8436338 L11.6121717,10.806936 L11.4664459,10.7726058 L11.3191812,10.7394594 L11.1703775,10.7086806 L11.0201533,10.6802694 L10.8687453,10.6542258 L10.7160351,10.629366 L10.5623779,10.6068738 L10.4077736,10.5867492 L10.252459,10.5678084 L10.0964342,10.5512352 L9.93981744,10.5370296 L9.78284556,10.5240078 L9.62563692,10.5133536 L9.46819152,10.505067 L9.31062774,10.499148 L9.15330072,10.4944128 L8.99609208,10.4920452 L8.8391202,10.4908614 L8.68262184,10.4920452 Z" id="Shape"></path>
            <path d="M31.0566186,8.9495538 L31.1442198,8.9507376 L31.2306372,8.9531052 L31.3170546,8.9566566 L31.403472,8.9613918 L31.4898894,8.9673108 L31.5763068,8.9744136 L31.6627242,8.9827002 L31.7479578,8.9909868 L31.8331914,9.001641 L31.918425,9.0122952 L32.0036586,9.025317 L32.0888922,9.0383388 L32.1741258,9.0525444 L32.2581756,9.0679338 L32.3422254,9.0833232 L32.4262752,9.1010802 L32.510325,9.1188372 L32.593191,9.1389618 L32.6772408,9.1590864 L32.7601068,9.1803948 L32.8429728,9.2017032 L32.924655,9.2253792 L33.007521,9.2490552 L33.0892032,9.273915 L33.1708854,9.2999586 L33.2513838,9.327186 L33.333066,9.3544134 L33.4135644,9.3828246 L33.4940628,9.4124196 L33.5733774,9.4420146 L33.6538758,9.4739772 L33.7331904,9.5059398 L33.812505,9.5390862 L33.8906358,9.5722326 L33.9687666,9.6065628 L34.0468974,9.6420768 L34.1250282,9.6775908 L34.2019752,9.7154724 L34.2789222,9.7521702 L34.3558692,9.7912356 L34.4316324,9.830301 L34.5085794,9.8705502 L34.5831588,9.9107994 L34.658922,9.9522324 L34.7335014,9.9948492 L34.8080808,10.037466 L34.8814764,10.0812666 L34.954872,10.126251 L35.0294514,10.1724192 L35.173875,10.2635718 L35.3171148,10.3582758 L35.4591708,10.4565312 L35.600043,10.5571542 L35.7385476,10.6601448 L35.8746846,10.765503 L36.0096378,10.8732288 L36.1422234,10.9833222 L36.2736252,11.0957832 L36.4026594,11.2106118 L36.5305098,11.327808 L36.6559926,11.4473718 L36.7802916,11.5681194 L36.9010392,11.6912346 L37.020603,11.8167174 L37.1377992,11.9445678 L37.2526278,12.073602 L37.3662726,12.20382 L37.476366,12.3364056 L37.5852756,12.4713588 L37.6918176,12.606312 L37.795992,12.7448166 L37.8977988,12.8833212 L37.997238,13.0241934 L38.0943096,13.1662494 L38.1878298,13.3094892 L38.2801662,13.4539128 L38.370135,13.5995202 L38.4565524,13.7463114 L38.541786,13.8954702 L38.6234682,14.044629 L38.7027828,14.1949716 L38.778546,14.346498 L38.8519416,14.4992082 L38.9229696,14.6519184 L38.99163,14.8069962 L39.056739,14.962074 L39.1182966,15.1171518 L39.1774866,15.2734134 L39.234309,15.4308588 L39.28758,15.589488 L39.3372996,15.7469334 L39.3846516,15.9067464 L39.4272684,16.0641918 L39.4485768,16.145874 L39.4687014,16.2251886 L39.4876422,16.305687 L39.5053992,16.3850016 L39.5231562,16.4655 L39.5397294,16.5459984 L39.5551188,16.6264968 L39.5705082,16.7069952 L39.5847138,16.7874936 L39.5977356,16.867992 L39.6095736,16.9484904 L39.6214116,17.0289888 L39.6320658,17.1094872 L39.6415362,17.1899856 L39.6498228,17.270484 L39.6581094,17.3509824 L39.6640284,17.4314808 L39.6711312,17.5119792 L39.6758664,17.5924776 L39.6794178,17.672976 L39.6829692,17.7534744 L39.6853368,17.8339728 L39.6865206,17.9144712 L39.6865206,17.9949696 L39.6853368,18.075468 L39.684153,18.1559664 L39.6817854,18.235281 L39.678234,18.3157794 L39.6734988,18.3962778 L39.6675798,18.4755924 L39.660477,18.554907 L39.6533742,18.6354054 L39.6450876,18.71472 L39.6344334,18.7940346 L39.6237792,18.8733492 L39.6119412,18.9526638 L39.5989194,19.0307946 L39.5847138,19.1101092 L39.5705082,19.18824 L39.553935,19.2663708 L39.5373618,19.3445016 L39.518421,19.4226324 L39.4994802,19.5007632 L39.4781718,19.5777102 L39.4568634,19.6546572 L39.4343712,19.7316042 L39.4106952,19.8085512 L39.3846516,19.8843144 L39.358608,19.9612614 L39.3313806,20.0370246 L39.3029694,20.111604 L39.2733744,20.1873672 L39.2425956,20.2619466 L39.210633,20.336526 L39.1774866,20.4099216 L39.1431564,20.484501 L39.1076424,20.5578966 L39.0709446,20.6301084 L39.033063,20.7023202 L38.9951814,20.774532 L38.9537484,20.8467438 L38.9134992,20.9177718 L38.8708824,20.987616 L38.8270818,21.058644 L38.7820974,21.1273044 L38.7359292,21.1971486 L38.6873934,21.265809 L38.6388576,21.3332856 L38.589138,21.4007622 L38.5382346,21.4682388 L38.4861474,21.5345316 L38.4328764,21.6008244 L38.3784216,21.6659334 L38.3215992,21.7310424 L38.2647768,21.7949676 L38.2067706,21.857709 L38.1475806,21.9216342 L38.086023,21.9831918 L38.0244654,22.0447494 L37.9605402,22.1051232 L37.896615,22.165497 L37.831506,22.2258708 L37.7640294,22.283877 L37.6965528,22.3418832 L37.6267086,22.3998894 L37.5568644,22.4567118 L37.4846526,22.5123504 L37.411257,22.567989 L37.3378614,22.6224438 L37.2620982,22.6768986 L37.186335,22.7289858 L37.1082042,22.7822568 L37.0288896,22.8331602 L36.9483912,22.8840636 L36.8678928,22.9337832 L36.7850268,22.9835028 L36.700977,23.0320386 L36.6157434,23.0793906 L36.529326,23.1267426 L36.4417248,23.171727 L36.3529398,23.2178952 L36.262971,23.2616958 L36.1730022,23.3054964 L36.079482,23.3481132 L35.9871456,23.39073 L35.8912578,23.4309792 L35.79537,23.4712284 L35.6982984,23.5114776 L35.600043,23.5493592 L35.5006038,23.5872408 L35.404716,23.6227548 L35.3076444,23.657085 L35.2105728,23.6902314 L35.1111336,23.7233778 L35.0116944,23.7553404 L34.9110714,23.787303 L34.8104484,23.8180818 L34.7074578,23.8488606 L34.6044672,23.8784556 L34.5002928,23.9068668 L34.3949346,23.935278 L34.2895764,23.9625054 L34.1830344,23.9897328 L34.0753086,24.0157764 L33.9675828,24.0406362 L33.8586732,24.065496 L33.7497636,24.089172 L33.6396702,24.1116642 L33.528393,24.1341564 L33.4171158,24.1554648 L33.3046548,24.1755894 L33.1921938,24.195714 L33.078549,24.2146548 L32.9649042,24.2335956 L32.8500756,24.2501688 L32.735247,24.266742 L32.6204184,24.2833152 L32.504406,24.2975208 L32.3883936,24.3117264 L32.2711974,24.3247482 L32.155185,24.3365862 L32.036805,24.3484242 L31.9196088,24.3590784 L31.8012288,24.3685488 L31.6828488,24.3768354 L31.5644688,24.385122 L31.444905,24.3922248 L31.3253412,24.3981438 L31.2069612,24.402879 L31.0862136,24.4064304 L30.9666498,24.4099818 L30.847086,24.4111656 L30.7263384,24.4123494 L30.6067746,24.4123494 L30.486027,24.4123494 L30.3664632,24.4099818 L30.2457156,24.4064304 L30.124968,24.402879 L30.0054042,24.3981438 L29.8846566,24.391041 L29.763909,24.3839382 L29.6443452,24.3756516 L29.5235976,24.3661812 L29.4040338,24.355527 L29.28447,24.3448728 L29.1649062,24.331851 L29.0453424,24.3176454 L28.9257786,24.302256 L28.8062148,24.2856828 L28.6878348,24.2691096 L28.5694548,24.2501688 L28.4510748,24.2300442 L28.3326948,24.2087358 L28.2154986,24.1874274 L28.0983024,24.1637514 L27.98229,24.1388916 L27.8650938,24.112848 L27.7490814,24.0856206 L27.6342528,24.0560256 L27.5194242,24.0264306 L27.4045956,23.9956518 L27.2909508,23.9625054 L27.177306,23.929359 L27.064845,23.893845 L26.952384,23.8571472 L26.8411068,23.8192656 L26.7298296,23.7790164 L26.6197362,23.7387672 L26.5108266,23.6961504 L26.401917,23.6523498 L26.2941912,23.6073654 L26.1876492,23.5600134 L26.0811072,23.5114776 L25.975749,23.461758 L25.8703908,23.4108546 L25.7674002,23.3575836 L25.6644096,23.3031288 L25.5626028,23.2474902 L25.4619798,23.189484 L25.3613568,23.130294 L25.2631014,23.0699202 L25.164846,23.0071788 L25.0689582,22.9432536 L24.9730704,22.8769608 L24.8795502,22.8094842 L24.78603,22.73964 L24.6948774,22.668612 L24.6037248,22.5964002 L24.5149398,22.5218208 L24.4273386,22.4460576 L24.3409212,22.3679268 L24.2556876,22.2886122 L24.1728216,22.20693 L24.0899556,22.124064 L24.0094572,22.0388304 L23.9313264,21.952413 L23.8543794,21.863628 L23.7786162,21.7736592 L23.7052206,21.6813228 L23.6330088,21.5866188 L23.5619808,21.490731 L23.4945042,21.3936594 L23.4270276,21.2942202 L23.3631024,21.1924134 L23.300361,21.0894228 L23.2388034,20.9852484 L23.1802053,20.8787064 L23.1235013,20.7697968 L23.0688097,20.6597034 L23.016249,20.5484262 L22.9658191,20.4347814 L22.9175201,20.318769 L22.8713519,20.2015728 L22.8275513,20.0831928 L22.7858815,19.9624452 L22.746461,19.8405138 L22.709408,19.7162148 L22.6748411,19.590732 L22.6379065,19.4463084 L22.6035763,19.3030686 L22.5718505,19.158645 L22.542729,19.0142214 L22.5159751,18.868614 L22.4918256,18.7241904 L22.4701621,18.578583 L22.4508661,18.4329756 L22.4341745,18.2873682 L22.4198506,18.1417608 L22.4080126,17.9961534 L22.3985422,17.850546 L22.3915577,17.7049386 L22.3869409,17.5593312 L22.3848101,17.4137238 L22.3849285,17.2681164 L22.3875328,17.122509 L22.3923864,16.9769016 L22.399726,16.832478 L22.4093147,16.6868706 L22.4211527,16.542447 L22.4354767,16.3980234 L22.4519315,16.2547836 L22.470754,16.11036 L22.4918256,15.9671202 L22.5151465,15.8238804 L22.5408349,15.6818244 L22.5686542,15.5397684 L22.5987227,15.3977124 L22.6309221,15.2568402 L22.6654891,15.115968 L22.7021869,14.9762796 L22.7410155,14.8365912 L22.7820934,14.6980866 L22.8253021,14.559582 L22.8706416,14.4222612 L22.918112,14.2861242 L22.9677132,14.1499872 L23.0194453,14.015034 L23.0733082,13.8800808 L23.1293019,13.7463114 L23.1873081,13.6137258 L23.24709,13.482324 L23.3098314,13.3509222 L23.3737566,13.2207042 L23.4400494,13.09167 L23.5087098,12.9638196 L23.578554,12.837153 L23.6507658,12.7104864 L23.7253452,12.5861874 L23.8022922,12.4618884 L23.880423,12.339957 L23.9609214,12.2180256 L24.0426036,12.0984618 L24.1278372,11.978898 L24.2130708,11.8617018 L24.3018558,11.7445056 L24.3918246,11.629677 L24.484161,11.5160322 L24.5776812,11.4035712 L24.673569,11.292294 L24.7706406,11.1833844 L24.8700798,11.0744748 L24.9718866,10.9691166 L25.0630392,10.8755964 L25.1565594,10.7844438 L25.2512634,10.6932912 L25.3471512,10.6045062 L25.4454066,10.516905 L25.5448458,10.4316714 L25.6466526,10.3464378 L25.7496432,10.2647556 L25.8550014,10.1830734 L25.9615434,10.1049426 L26.070453,10.0279956 L26.1805464,9.9534162 L26.2918236,9.8812044 L26.4054684,9.8113602 L26.5214808,9.7438836 L26.638677,9.6787746 L26.7582408,9.617217 L26.8766208,9.558027 L26.9393622,9.528432 L27.0009198,9.5012046 L27.0624774,9.4739772 L27.1252188,9.4467498 L27.1879602,9.42189 L27.2507016,9.3970302 L27.3146268,9.3733542 L27.378552,9.3496782 L27.4424772,9.327186 L27.5075862,9.3058776 L27.573879,9.2845692 L27.638988,9.2644446 L27.7052808,9.2466876 L27.7715736,9.2277468 L27.8390502,9.2111736 L27.905343,9.1946004 L27.9740034,9.179211 L28.04148,9.1650054 L28.1101404,9.1519836 L28.1788008,9.1401456 L28.248645,9.1283076 L28.3173054,9.1188372 L28.3871496,9.1093668 L28.4581776,9.1010802 L28.5292056,9.0939774 L28.5990498,9.0880584 L28.6712616,9.0833232 L28.7493924,9.0797718 L28.8145014,9.078588 L28.911573,9.078588 L28.9731306,9.0809556 L29.0382396,9.0833232 L29.1080838,9.0880584 L29.1826632,9.0939774 L29.2596102,9.1034478 L29.3401086,9.1152858 L29.420607,9.1306752 L29.4715104,9.1425132 L29.5200462,9.1567188 L29.5733172,9.1744758 L29.6325072,9.1993356 L29.6703888,9.2182764 L29.6999838,9.2348496 L29.728395,9.2514228 L29.7414168,9.2597094 L29.7769308,9.2845692 L29.793504,9.297591 L29.8100772,9.2703636 L29.846775,9.2194602 L29.888208,9.173292 L29.9343762,9.131859 L29.9840958,9.0939774 L30.0373668,9.0620148 L30.0930054,9.0347874 L30.1510116,9.013479 L30.2113854,8.9980896 L30.272943,8.9886192 L30.3569928,8.9803326 L30.444594,8.972046 L30.5321952,8.966127 L30.6197964,8.960208 L30.7073976,8.9554728 L30.7949988,8.9519214 L30.8826,8.9507376 L30.9702012,8.9495538 L31.0566186,8.9495538 Z M29.976993,10.1428242 L29.9450304,10.1949114 L29.9071488,10.244631 L29.864532,10.2896154 L29.81718,10.3310484 L29.7674604,10.3665624 L29.7130056,10.3973412 L29.6561832,10.4233848 L29.598177,10.4435094 L29.5366194,10.457715 L29.4750618,10.4660016 L29.4135042,10.4671854 L29.3519466,10.463634 L29.290389,10.4529798 L29.2300152,10.4375904 L29.172009,10.4150982 L29.1163704,10.3878708 L29.0642832,10.3559082 L29.0583642,10.3547244 L29.0157474,10.351173 L28.970763,10.3488054 L28.9269624,10.3464378 L28.8867132,10.345254 L28.8192366,10.345254 L28.793193,10.345254 L28.7482086,10.3476216 L28.6961214,10.351173 L28.645218,10.3559082 L28.5931308,10.3606434 L28.5434112,10.3665624 L28.4925078,10.3736652 L28.4416044,10.380768 L28.3918848,10.3890546 L28.3409814,10.3973412 L28.2912618,10.4079954 L28.2415422,10.4174658 L28.1918226,10.4293038 L28.1432868,10.4411418 L28.0935672,10.4529798 L28.0450314,10.4660016 L27.9964956,10.4802072 L27.946776,10.4955966 L27.899424,10.5098022 L27.8508882,10.5263754 L27.8023524,10.5429486 L27.7550004,10.5607056 L27.7064646,10.5784626 L27.6591126,10.5974034 L27.6117606,10.6163442 L27.5644086,10.6364688 L27.5182404,10.6577772 L27.4708884,10.6790856 L27.425904,10.700394 L27.3312,10.7465622 L27.2388636,10.795098 L27.147711,10.8448176 L27.0577422,10.8980886 L26.9677734,10.9537272 L26.8789884,11.0105496 L26.7902034,11.0697396 L26.703786,11.132481 L26.6173686,11.1964062 L26.5309512,11.2615152 L26.4469014,11.3289918 L26.3628516,11.398836 L26.2799856,11.469864 L26.1983034,11.5420758 L26.117805,11.6166552 L26.0384904,11.6936022 L25.9591758,11.7705492 L25.8822288,11.8498638 L25.7946276,11.9410164 L25.709394,12.0333528 L25.6253442,12.1280568 L25.5424782,12.2239446 L25.4619798,12.3198324 L25.3826652,12.4180878 L25.3057182,12.517527 L25.229955,12.61815 L25.1553756,12.718773 L25.08198,12.8217636 L25.010952,12.925938 L24.9422916,13.0301124 L24.874815,13.1354706 L24.8085222,13.2431964 L24.744597,13.3509222 L24.6818556,13.4598318 L24.6214818,13.5687414 L24.5622918,13.6788348 L24.5054694,13.7912958 L24.4498308,13.9037568 L24.3965598,14.0162178 L24.3444726,14.1298626 L24.2935692,14.2446912 L24.2450334,14.3607036 L24.1988652,14.476716 L24.1538808,14.5939122 L24.111264,14.7111084 L24.0710148,14.8294884 L24.0307656,14.9478684 L23.9940678,15.0674322 L23.9585538,15.186996 L23.9254074,15.3065598 L23.8934448,15.4284912 L23.8638498,15.5492388 L23.8354386,15.6711702 L23.809395,15.7931016 L23.785719,15.915033 L23.7632268,16.0381482 L23.7431022,16.1612634 L23.7253452,16.2855624 L23.708772,16.4086776 L23.6945664,16.5329766 L23.6827284,16.6572756 L23.6720742,16.7815746 L23.6637876,16.9058736 L23.6578686,17.0301726 L23.6543172,17.1556554 L23.6519496,17.2799544 L23.6519496,17.4042534 L23.6531334,17.5297362 L23.6578686,17.6540352 L23.6637876,17.779518 L23.6708904,17.903817 L23.6815446,18.0292998 L23.6933826,18.1535988 L23.7075882,18.2778978 L23.7241614,18.4021968 L23.7431022,18.5264958 L23.7632268,18.649611 L23.7869028,18.77391 L23.8117626,18.8970252 L23.83899,19.0201404 L23.8674012,19.1432556 L23.8993638,19.265187 L23.9265912,19.36581 L23.9561862,19.4652492 L23.986965,19.5623208 L24.0201114,19.6570248 L24.0556254,19.750545 L24.0911394,19.8428814 L24.129021,19.9328502 L24.1680864,20.0216352 L24.2095194,20.1092364 L24.2521362,20.19447 L24.2959368,20.2785198 L24.342105,20.3613858 L24.3882732,20.443068 L24.436809,20.5223826 L24.4877124,20.6005134 L24.5386158,20.6774604 L24.5918868,20.7532236 L24.6463416,20.8266192 L24.7019802,20.9000148 L24.7588026,20.9710428 L24.8179926,21.040887 L24.8771826,21.1107312 L24.9387402,21.1782078 L25.0014816,21.2445006 L25.0654068,21.3096096 L25.1316996,21.3735348 L25.1979924,21.4362762 L25.2666528,21.4978338 L25.3353132,21.5570238 L25.4063412,21.6162138 L25.478553,21.67422 L25.5519486,21.7310424 L25.626528,21.786681 L25.7022912,21.8411358 L25.7792382,21.8944068 L25.857369,21.946494 L25.9366836,21.9973974 L26.017182,22.0459332 L26.0988642,22.0956528 L26.1817302,22.141821 L26.26578,22.189173 L26.3510136,22.2341574 L26.437431,22.277958 L26.5250322,22.3205748 L26.6126334,22.3620078 L26.7026022,22.402257 L26.792571,22.4425062 L26.8837236,22.4803878 L26.97606,22.5182694 L27.0695802,22.5537834 L27.1631004,22.5892974 L27.2589882,22.6224438 L27.354876,22.6555902 L27.4507638,22.6875528 L27.5490192,22.7183316 L27.6472746,22.7467428 L27.74553,22.775154 L27.846153,22.8023814 L27.946776,22.8296088 L28.047399,22.8544686 L28.1492058,22.8781446 L28.2521964,22.9006368 L28.355187,22.923129 L28.4581776,22.9432536 L28.562352,22.9633782 L28.6677102,22.982319 L28.7730684,23.000076 L28.8784266,23.0166492 L28.9837848,23.0320386 L29.0915106,23.0462442 L29.1980526,23.0604498 L29.3045946,23.0722878 L29.4135042,23.0841258 L29.52123,23.09478 L29.6289558,23.1042504 L29.7378654,23.112537 L29.846775,23.1196398 L29.9556846,23.1267426 L30.0645942,23.1326616 L30.1735038,23.1373968 L30.2824134,23.1409482 L30.3925068,23.1433158 L30.5014164,23.1456834 L30.6115098,23.1456834 L30.7216032,23.1456834 L30.8305128,23.1456834 L30.9406062,23.1433158 L31.0495158,23.1409482 L31.1596092,23.1373968 L31.2685188,23.1326616 L31.3774284,23.1267426 L31.486338,23.1208236 L31.5952476,23.1137208 L31.7029734,23.1054342 L31.811883,23.0971476 L31.9196088,23.0876772 L32.0273346,23.077023 L32.1350604,23.065185 L32.2416024,23.053347 L32.3481444,23.0403252 L32.4546864,23.0273034 L32.5600446,23.0130978 L32.6654028,22.9977084 L32.7695772,22.9811352 L32.8737516,22.964562 L32.977926,22.9479888 L33.0809166,22.929048 L33.1827234,22.9101072 L33.2845302,22.8911664 L33.3851532,22.8710418 L33.4857762,22.8497334 L33.5852154,22.828425 L33.6846546,22.8059328 L33.78291,22.7834406 L33.8799816,22.7597646 L33.9770532,22.7349048 L34.0717572,22.710045 L34.1664612,22.6851852 L34.2611652,22.6591416 L34.3535016,22.6319142 L34.445838,22.6046868 L34.5369906,22.5774594 L34.6257756,22.5490482 L34.7145606,22.520637 L34.8033456,22.491042 L34.889763,22.461447 L34.9749966,22.4306682 L35.0590464,22.3998894 L35.1454638,22.3679268 L35.2295136,22.3347804 L35.3123796,22.3004502 L35.3952456,22.26612 L35.475744,22.230606 L35.5550586,22.195092 L35.6331894,22.159578 L35.7101364,22.1228802 L35.7847158,22.0861824 L35.8592952,22.047117 L35.9326908,22.0092354 L36.0037188,21.97017 L36.0747468,21.9311046 L36.1434072,21.8908554 L36.2120676,21.8506062 L36.2783604,21.8091732 L36.3434694,21.7677402 L36.4085784,21.7263072 L36.4713198,21.6836904 L36.5328774,21.6410736 L36.594435,21.597273 L36.653625,21.5534724 L36.7116312,21.5096718 L36.7696374,21.4646874 L36.825276,21.419703 L36.8797308,21.3735348 L36.9341856,21.3273666 L36.9862728,21.2811984 L37.03836,21.2338464 L37.0892634,21.1864944 L37.138983,21.1391424 L37.186335,21.0917904 L37.233687,21.0432546 L37.281039,20.993535 L37.3260234,20.9449992 L37.369824,20.8952796 L37.4136246,20.84556 L37.4550576,20.7946566 L37.4964906,20.7437532 L37.5367398,20.6928498 L37.5758052,20.6419464 L37.6136868,20.5898592 L37.6515684,20.537772 L37.6870824,20.484501 L37.7225964,20.4324138 L37.7569266,20.3791428 L37.7912568,20.3258718 L37.8232194,20.271417 L37.855182,20.2169622 L37.8859608,20.1625074 L37.9155558,20.1080526 L37.943967,20.052414 L37.9723782,19.9967754 L37.9996056,19.9411368 L38.0256492,19.8843144 L38.050509,19.827492 L38.0753688,19.7706696 L38.0990448,19.7138472 L38.121537,19.655841 L38.1428454,19.5978348 L38.1641538,19.5398286 L38.1842784,19.4818224 L38.2032192,19.4226324 L38.22216,19.3634424 L38.239917,19.3042524 L38.2564902,19.2450624 L38.2718796,19.1846886 L38.287269,19.1243148 L38.3014746,19.063941 L38.3156802,19.0023834 L38.3275182,18.9408258 L38.3393562,18.8792682 L38.3500104,18.8177106 L38.3606646,18.756153 L38.370135,18.6934116 L38.3784216,18.6306702 L38.3867082,18.5679288 L38.3926272,18.5051874 L38.39973,18.4412622 L38.4044652,18.3785208 L38.4092004,18.3145956 L38.4127518,18.2506704 L38.4151194,18.1855614 L38.417487,18.1216362 L38.4186708,18.0565272 L38.4198546,17.9914182 L38.4198546,17.9263092 L38.4186708,17.8612002 L38.4163032,17.7960912 L38.4139356,17.7297984 L38.4103842,17.6646894 L38.4068328,17.5983966 L38.4020976,17.5321038 L38.3961786,17.465811 L38.3902596,17.3995182 L38.3831568,17.3320416 L38.3748702,17.2657488 L38.3653998,17.1982722 L38.3559294,17.1319794 L38.346459,17.0645028 L38.3358048,16.9970262 L38.3239668,16.9295496 L38.310945,16.8632568 L38.2979232,16.7957802 L38.2837176,16.7271198 L38.269512,16.6596432 L38.2541226,16.5921666 L38.2375494,16.52469 L38.2209762,16.4572134 L38.204403,16.3909206 L38.1665214,16.2535998 L38.1262722,16.1186466 L38.0836554,15.9825096 L38.0374872,15.8475564 L37.9889514,15.7114194 L37.938048,15.5764662 L37.8835932,15.441513 L37.8279546,15.3077436 L37.7687646,15.1739742 L37.707207,15.0402048 L37.6432818,14.9076192 L37.5758052,14.7750336 L37.5071448,14.6436318 L37.434933,14.51223 L37.3615374,14.382012 L37.2845904,14.2529778 L37.2064596,14.1251274 L37.1259612,13.997277 L37.0419114,13.8717942 L36.9566778,13.7463114 L36.8690766,13.6231962 L36.7802916,13.500081 L36.6879552,13.3793334 L36.594435,13.2597696 L36.4985472,13.1413896 L36.4002918,13.0241934 L36.3008526,12.9093648 L36.2002296,12.79572 L36.0960552,12.683259 L35.9918808,12.5731656 L35.884155,12.464256 L35.7764292,12.357714 L35.6663358,12.2535396 L35.5538748,12.150549 L35.4414138,12.049926 L35.3265852,11.9516706 L35.2105728,11.8557828 L35.0921928,11.7610788 L34.9738128,11.6699262 L34.8530652,11.5799574 L34.7311338,11.49354 L34.6080186,11.4083064 L34.4837196,11.3254404 L34.357053,11.244942 L34.2954954,11.2070604 L34.232754,11.1691788 L34.1688288,11.1312972 L34.1049036,11.0945994 L34.0409784,11.0579016 L33.9758694,11.0223876 L33.9119442,10.9880574 L33.8468352,10.9537272 L33.7817262,10.9205808 L33.7166172,10.8874344 L33.6515082,10.8554718 L33.5852154,10.8235092 L33.5189226,10.7939142 L33.4526298,10.7631354 L33.386337,10.7347242 L33.3200442,10.706313 L33.2537514,10.6779018 L33.1862748,10.6506744 L33.119982,10.6246308 L33.0525054,10.599771 L32.9850288,10.5749112 L32.9175522,10.5512352 L32.8488918,10.5275592 L32.7814152,10.505067 L32.7139386,10.4837586 L32.6452782,10.463634 L32.5766178,10.4435094 L32.5079574,10.4233848 L32.439297,10.4056278 L32.3706366,10.3878708 L32.3019762,10.3712976 L32.2333158,10.3559082 L32.1634716,10.3405188 L32.0948112,10.3263132 L32.024967,10.3132914 L31.9563066,10.3002696 L31.8864624,10.2884316 L31.8166182,10.2777774 L31.746774,10.2671232 L31.6769298,10.2588366 L31.6070856,10.25055 L31.5372414,10.2434472 L31.4673972,10.2363444 L31.397553,10.2304254 L31.326525,10.2256902 L31.2566808,10.2221388 L31.1868366,10.2197712 L31.1158086,10.2174036 L31.0459644,10.2162198 L30.9749364,10.2162198 L30.9039084,10.2162198 L30.8340642,10.2185874 L30.7630362,10.220955 L30.6920082,10.2245064 L30.6209802,10.2292416 L30.5499522,10.2351606 L30.4789242,10.2410796 L30.4043448,10.2493662 L30.3416034,10.2529176 L30.2800458,10.2493662 L30.2184882,10.2410796 L30.1581144,10.2256902 L30.0989244,10.2055656 L30.0432858,10.179522 L29.988831,10.1475594 L29.9793606,10.1392728 L29.976993,10.1428242 Z M28.8156852,10.0090548 L28.816869,10.0114224 L28.8156852,10.007871 L28.8156852,10.0090548 Z M28.7967444,9.9261888 L28.8002958,9.9463134 L28.793193,9.8859396 L28.7967444,9.9261888 Z" id="Shape"></path>
            <polygon id="Shape" points="26.637297 2.55780526 26.6921371 2.56363378 26.7469773 2.57237656 26.799748 2.58694786 26.851484 2.60589055 26.9011506 2.62920463 26.9487477 2.65543297 26.9518518 2.65834723 26.9911712 2.68457557 27.0284211 2.7151753 27.0646363 2.74868929 27.0967126 2.78511754 27.0998168 2.7880318 27.1339626 2.8317457 27.1639694 2.87837386 27.1888027 2.92791628 27.2105318 2.97891583 27.2270874 3.03137251 27.239504 3.08528632 27.246747 3.14065726 27.2488165 3.19457107 27.246747 3.24994201 27.2436429 3.27762748 27.2560595 3.36214102 27.272615 3.46851151 27.2922747 3.5894533 27.3150386 3.71768074 27.3647051 3.98433553 27.413337 4.23204763 27.4526563 4.42730305 27.4671424 4.48995964 27.4754202 4.52638789 27.8479194 5.9791465 28.0352037 6.7077115 28.2245574 7.4362765 28.4977235 8.48978149 28.6374107 9.02309107 28.7077717 9.28974586 28.7802021 9.55640065 28.8536672 9.82305544 28.928167 10.0897102 29.0037016 10.356365 29.0813056 10.6201056 29.1599443 10.8838461 29.2406525 11.1446724 29.3234301 11.4054986 29.4072424 11.6634106 29.4951936 11.9198655 29.5386518 12.0451787 29.5831448 12.171949 29.6286725 12.2972622 29.6752349 12.4211182 29.7217973 12.5449743 29.7683597 12.6688303 29.8159568 12.7912293 29.8645886 12.912171 29.9142552 13.0316557 29.9639218 13.1511404 30.014623 13.270625 30.0653243 13.3871954 30.1170603 13.5037658 30.169831 13.6188791 30.2236365 13.7339924 30.2774419 13.8461914 30.3322821 13.9583904 30.388157 14.0691323 30.4440318 14.178417 30.5019762 14.2877018 30.5599205 14.3940723 30.6178648 14.4989856 30.6778786 14.603899 30.7378923 14.7058981 30.7999755 14.8078972 30.8620587 14.906982 30.9251766 15.0060669 30.9882946 15.1022374 31.0534819 15.198408 31.1217734 15.2945786 31.1507456 15.3412068 31.1766136 15.3907492 31.197308 15.4417487 31.2138635 15.4942054 31.2262802 15.5481192 31.2335232 15.6034902 31.2355926 15.6588611 31.2335232 15.714232 31.2262802 15.7681458 31.2138635 15.8220597 31.197308 15.8745163 31.1766136 15.9255159 31.1507456 15.9750583 31.1207387 16.0216865 31.0876277 16.0654004 31.0503778 16.1062 31.008989 16.1440854 30.9655307 16.1775994 30.9189683 16.206742 30.8693018 16.2329703 30.8186005 16.2533701 30.7658298 16.2693986 30.7120243 16.2825127 30.6571842 16.2897984 30.602344 16.2912555 30.5464691 16.2897984 30.491629 16.2810556 30.4378235 16.2693986 30.3850528 16.2533701 30.3343515 16.2315132 30.2857197 16.206742 30.2391573 16.1761422 30.1946643 16.1426283 30.1543102 16.1062 30.1170603 16.0654004 30.0829146 16.0216865 30.0104842 15.9167731 29.9359843 15.8060312 29.8625192 15.6952893 29.7900888 15.5830903 29.7197278 15.4694342 29.6504016 15.3557781 29.5821101 15.2392077 29.515888 15.1226373 29.4496659 15.0046097 29.3844786 14.8851251 29.3213606 14.7656404 29.2592774 14.6432415 29.1971942 14.5222997 29.1371805 14.3984436 29.0782014 14.2745876 29.0202571 14.1507315 28.9623128 14.0254184 28.9064379 13.8986481 28.850563 13.7718777 28.7967576 13.6436503 28.7429522 13.5154229 28.6901814 13.3857383 28.6384454 13.2560537 28.5877442 13.1263692 28.5370429 12.9952275 28.4873763 12.8626286 28.4387445 12.7314869 28.3911474 12.5988881 28.3435502 12.4662893 28.2969878 12.3307762 28.2059325 12.0641214 28.1179813 11.7945523 28.0320995 11.5235262 27.9482872 11.2525 27.8665443 10.9800167 27.7868709 10.7075334 27.7092669 10.43505 27.6326976 10.1611096 27.5581978 9.89008342 27.4847326 9.61760011 27.4123022 9.34657393 27.2715803 8.80889296 26.9984142 7.75393084 26.8090605 7.02390871 26.6217762 6.29388658 26.2451381 4.82947093 26.2316867 4.7697286 26.2140965 4.68958645 26.1706382 4.47975973 26.119937 4.22039059 26.0692357 3.94207876 26.0444024 3.80510854 26.0226733 3.67250971 26.0030136 3.55011079 25.9874928 3.43936891 25.9761109 3.34028407 25.9709373 3.28637026 25.9688678 3.22371367 25.9699026 3.18291403 25.9730067 3.14502865 25.9771456 3.1086004 25.9781803 3.10131475 25.9874928 3.0503152 26.0019789 3.00222991 26.0030136 2.99785852 26.0185344 2.95414462 26.0371594 2.91334498 26.0588885 2.87254534 26.0837218 2.83465996 26.1106245 2.79823171 26.1126939 2.79531745 26.1478744 2.75597494 26.1871938 2.71808956 26.2285826 2.68311844 26.2730755 2.65397584 26.3206726 2.62629037 26.3693045 2.60443342 26.4200058 2.58694786 26.4727765 2.57237656 26.5255472 2.56363378 26.5286514 2.56363378 26.5824568 2.55780526"></polygon>
            <path d="M26.7559332,0.3161004 L26.8470858,0.318468 L26.9358708,0.3220194 L27.023472,0.3267546 L27.1075218,0.3338574 L27.1903878,0.342144 L27.2708862,0.353982 L27.3513846,0.3681876 L27.4330668,0.3847608 L27.5111976,0.407253 L27.5585496,0.4226424 L27.603534,0.4392156 L27.6497022,0.460524 L27.7006056,0.4853838 L27.7716336,0.5268168 L27.8414778,0.5765364 L27.9077706,0.632175 L27.9693282,0.6937326 L28.0072098,0.738717 L28.0249668,0.7600254 L28.04154,0.7825176 L28.0758702,0.8310534 L28.118487,0.9056328 L28.154001,0.981396 L28.1824122,1.058343 L28.2037206,1.1341062 L28.21911,1.2098694 L28.2297642,1.2844488 L28.2344994,1.3566606 L28.2356832,1.4265048 L28.2333156,1.496349 L28.2273966,1.5626418 L28.21911,1.6277508 L28.207272,1.691676 L28.1942502,1.7544174 L28.177677,1.815975 L28.1611038,1.8763488 L28.142163,1.9367226 L28.1208546,1.9959126 L28.0983624,2.0539188 L28.0746864,2.111925 L28.0498266,2.1687474 L28.023783,2.2255698 L27.9965556,2.2823922 L27.9681444,2.3380308 L27.9385494,2.3948532 L27.9077706,2.4504918 L27.8746242,2.5073142 L27.822537,2.5949154 L27.7657146,2.6837004 L27.7077084,2.7724854 L27.6473346,2.8600866 L27.585777,2.946504 L27.5218518,3.0329214 L27.4567428,3.118155 L27.39045,3.2022048 L27.3229734,3.2850708 L27.254313,3.366753 L27.1856526,3.4460676 L27.1146246,3.5253822 L27.0447804,3.6023292 L26.9725686,3.6769086 L26.9015406,3.7503042 L26.8305126,3.8201484 L26.7594846,3.8888088 L26.6872728,3.9551016 L26.6162448,4.0190268 L26.5452168,4.0805844 L26.4753726,4.1397744 L26.4043446,4.195413 L26.3345004,4.248684 L26.2634724,4.2984036 L26.1924444,4.3457556 L26.1190488,4.39074 L26.0444694,4.432173 L25.9710738,4.467687 L25.9249056,4.4878116 L25.8822888,4.5043848 L25.8361206,4.520958 L25.7875848,4.5351636 L25.7354976,4.5481854 L25.679859,4.5588396 L25.6183014,4.5659424 L25.5780522,4.5671262 L25.5460896,4.56831 L25.5129432,4.5671262 L25.4809806,4.5635748 L25.4478342,4.5600234 L25.4158716,4.5541044 L25.3850928,4.5458178 L25.3531302,4.5363474 L25.3223514,4.5256932 L25.2927564,4.5126714 L25.2631614,4.4984658 L25.2347502,4.4830764 L25.206339,4.4665032 L25.1802954,4.4475624 L25.1542518,4.4286216 L25.129392,4.4073132 L25.1045322,4.384821 L25.0832238,4.361145 L25.0607316,4.3362852 L25.040607,4.3102416 L25.02285,4.284198 L25.005093,4.2557868 L24.9897036,4.2273756 L24.975498,4.1989644 L24.9624762,4.1681856 L24.9506382,4.1374068 L24.9411678,4.106628 L24.9328812,4.0746654 L24.9269622,4.0427028 L24.922227,4.0107402 L24.9186756,3.9787776 L24.9174918,3.9456312 L24.9174918,3.9124848 L24.9198594,3.8805222 L24.9234108,3.8485596 L24.9293298,3.8154132 L24.9352488,3.7846344 L24.9447192,3.7526718 L24.9541896,3.721893 L24.9660276,3.6911142 L24.9790494,3.6615192 L24.9944388,3.6319242 L25.011012,3.6046968 L25.028769,3.5762856 L25.0477098,3.550242 L25.0678344,3.5253822 L25.0903266,3.5005224 L25.1128188,3.4780302 L25.1364948,3.455538 L25.1613546,3.4342296 L25.188582,3.4152888 L25.2158094,3.3975318 L25.2430368,3.3809586 L25.2726318,3.3655692 L25.3022268,3.3525474 L25.3330056,3.3407094 L25.3637844,3.3300552 L25.3945632,3.3205848 L25.4265258,3.313482 L25.4584884,3.307563 L25.4596722,3.307563 L25.4809806,3.295725 L25.5105756,3.277968 L25.5460896,3.254292 L25.5863388,3.2258808 L25.6301394,3.1927344 L25.6774914,3.1548528 L25.727211,3.1134198 L25.7792982,3.0684354 L25.833753,3.0198996 L25.8893916,2.9689962 L25.9450302,2.9145414 L26.0030364,2.857719 L26.0610426,2.798529 L26.1190488,2.7369714 L26.177055,2.67423 L26.2338774,2.609121 L26.2918836,2.5428282 L26.3475222,2.4765354 L26.4031608,2.4090588 L26.4576156,2.3403984 L26.5097028,2.271738 L26.5606062,2.2030776 L26.6103258,2.1344172 L26.656494,2.0657568 L26.7002946,1.999464 L26.7417276,1.9331712 L26.7819768,1.8668784 L26.8032852,1.8301806 L26.8234098,1.792299 L26.8435344,1.7544174 L26.8612914,1.7189034 L26.8790484,1.6833894 L26.8944378,1.650243 L26.9074596,1.6182804 L26.9204814,1.5898692 L26.8719456,1.5863178 L26.804469,1.5839502 L26.7322572,1.5815826 L26.6553102,1.5815826 L26.5748118,1.5815826 L26.4895782,1.5827664 L26.401977,1.5839502 L26.3108244,1.5875016 L26.2173042,1.591053 L26.1226002,1.5946044 L25.9237218,1.6064424 L25.721292,1.6218318 L25.514127,1.638405 L25.306962,1.6573458 L25.1009808,1.6786542 L24.898551,1.7023302 L24.7020402,1.7260062 L24.513816,1.750866 L24.3350622,1.7769096 L24.3279594,1.7780934 L24.3149376,1.7970342 L24.294813,1.821894 L24.2723208,1.8467538 L24.2498286,1.869246 L24.2261526,1.8917382 L24.200109,1.9130466 L24.1740654,1.9319874 L24.146838,1.9497444 L24.1196106,1.9663176 L24.0900156,1.981707 L24.0604206,1.9959126 L24.0308256,2.0077506 L24.0000468,2.0184048 L23.9680842,2.0266914 L23.9361216,2.034978 L23.904159,2.0397132 L23.8721964,2.0444484 L23.83905,2.046816 L23.8070874,2.046816 L23.714751,2.046816 L23.6271498,2.0444484 L23.5466514,2.0420808 L23.472072,2.0373456 L23.401044,2.0314266 L23.330016,2.0219562 L23.2802964,2.0124858 L23.2518852,2.0077506 L23.2246578,2.0006478 L23.199798,1.993545 L23.1773058,1.9864422 L23.1548136,1.9793394 L23.1323214,1.9710528 L23.1240348,1.9675014 L23.1015426,1.9568472 L23.0802342,1.9473768 L23.0589258,1.9367226 L23.051823,1.9319874 L23.028147,1.9189656 L23.0056548,1.90476 L22.9843464,1.8893706 L22.963038,1.8739812 L22.957119,1.869246 L22.9322592,1.8491214 L22.9085832,1.8266292 L22.886091,1.804137 L22.8647826,1.7792772 L22.844658,1.7544174 L22.8411066,1.7496822 L22.8245334,1.72719 L22.809144,1.7023302 L22.7937546,1.6774704 L22.7807328,1.6526106 L22.7688948,1.626567 L22.7570568,1.5993396 L22.7475864,1.573296 L22.738116,1.5448848 L22.7369322,1.5413334 L22.7298294,1.5129222 L22.7239104,1.484511 L22.7179914,1.454916 L22.71444,1.4265048 L22.7132562,1.3969098 L22.7120724,1.3673148 L22.7120724,1.3389036 L22.71444,1.3093086 L22.7168076,1.2808974 L22.7179914,1.2761622 L22.7227266,1.2441996 L22.7298294,1.2134208 L22.7369322,1.182642 L22.7464026,1.153047 L22.7582406,1.123452 L22.7700786,1.093857 L22.7842842,1.0654458 L22.7866518,1.0618944 L22.8020412,1.034667 L22.8174306,1.0086234 L22.8351876,0.9837636 L22.8529446,0.9589038 L22.8730692,0.9352278 L22.8778044,0.9304926 L22.8943776,0.9127356 L22.9121346,0.8937948 L22.9310754,0.8772216 L22.9500162,0.8606484 L22.9559352,0.8559132 L22.9736922,0.8417076 L22.992633,0.8286858 L23.01039,0.815664 L23.0186766,0.809745 L23.0376174,0.797907 L23.0565582,0.7872528 L23.0766828,0.7765986 L23.122851,0.7529226 L23.1915114,0.7245114 L23.253069,0.7043868 L23.312259,0.685446 L23.3726328,0.6700566 L23.4353742,0.6546672 L23.5004832,0.6392778 L23.5691436,0.6250722 L23.6425392,0.6096828 L23.7964332,0.5812716 L23.9657166,0.5528604 L24.146838,0.5244492 L24.3397974,0.4972218 L24.5410434,0.4699944 L24.750576,0.4439508 L24.9648438,0.419091 L25.1838468,0.3965988 L25.4040336,0.3764742 L25.6242204,0.3587172 L25.8420396,0.3433278 L26.0551236,0.330306 L26.1616656,0.3255708 L26.26584,0.3208356 L26.3676468,0.318468 L26.4682698,0.3161004 L26.5665252,0.3149166 L26.662413,0.3149166 L26.7559332,0.3161004 Z M25.5164946,3.3028278 L25.5117594,3.3028278 L25.5235974,3.301644 L25.5164946,3.3028278 Z" id="Shape"></path>
            <path d="M16.9008089,5.63989334 C16.9008089,5.65173131 16.550405,5.7393323 16.5219938,5.74998647 C16.1538329,5.89322593 13.8039956,6.91010768 13.9496026,7.2368357 C14.0265494,7.41085388 19.1074068,7.42624324 18.0183134,6.55496854" id="Shape" transform="translate(16.057197, 6.485604) rotate(176.597174) translate(-16.057197, -6.485604) "></path>
            <path d="M14.2618062,7.93506024 L14.1907783,7.92914125 L14.1233019,7.92322227 L14.0605606,7.91493569 L13.9990032,7.90664911 L13.9386295,7.89717873 L13.8770721,7.88415696 L13.8060443,7.8664 L13.7586924,7.84982684 L13.7385678,7.84154026 L13.7172595,7.83325368 L13.6971349,7.82378331 L13.6888483,7.82023192 L13.6687238,7.80957774 L13.6485992,7.79773977 L13.6284747,7.7859018 L13.6213719,7.78235041 L13.6000636,7.76814484 L13.5787552,7.75275548 L13.5586307,7.73736611 L13.5385061,7.72079295 L13.5337709,7.71605777 L13.510095,7.69474942 L13.4876028,7.67107347 L13.4662945,7.64739753 L13.4461699,7.62135399 L13.4272292,7.59531046 L13.4236778,7.59057527 L13.4082884,7.56689932 L13.3940829,7.54085579 L13.3810611,7.51481225 L13.3680393,7.48876871 L13.3573851,7.46154138 L13.3538337,7.4544386 L13.346731,7.43194645 L13.3396282,7.4094543 L13.3325254,7.38577836 L13.3301578,7.37867558 L13.3254226,7.35499963 L13.3206874,7.33250749 L13.317136,7.31001534 L13.3159522,7.30172876 L13.3135846,7.27923662 L13.3112171,7.25674447 L13.3100333,7.23425233 L13.3100333,7.22596575 L13.3100333,7.19400322 L13.3112171,7.1632245 L13.3112171,7.15375412 L13.3135846,7.12534299 L13.3183198,7.09693186 L13.3195036,7.08746148 L13.3242388,7.06260174 L13.328974,7.0365582 L13.3360768,7.01169846 L13.340812,6.9939415 L13.3502824,6.96671417 L13.3597527,6.93948683 L13.3704069,6.9122595 L13.3786935,6.89331875 L13.3881639,6.8720104 L13.398818,6.85188585 L13.410656,6.83176129 L13.4355158,6.7879608 L13.4781324,6.72640335 L13.5219329,6.67194868 L13.5645496,6.62578059 L13.6071663,6.5819801 L13.6509668,6.54291479 L13.6935835,6.50503328 L13.737384,6.46951937 L13.7823683,6.43518925 L13.8285364,6.40085913 L13.8770721,6.36652901 L13.9717759,6.30260397 L14.0735824,6.23749512 L14.1789404,6.17357008 L14.2890335,6.10964503 L14.4014942,6.04690378 L14.5175063,5.98416253 L14.6358861,5.92142129 L14.7554496,5.85986383 L14.8761969,5.79949018 L14.998128,5.73911652 L15.1176915,5.68111046 L15.2384388,5.6242882 L15.4692793,5.51656266 L15.6859141,5.4183075 L15.8824245,5.3318903 L16.0528913,5.25849488 L16.1902117,5.20048882 L16.2860993,5.16260731 L16.3121428,5.15313693 L16.3393702,5.14366656 L16.3713327,5.13419618 L16.4281549,5.11880682 L16.556005,5.0844767 L16.6175625,5.06790354 L16.655444,5.05606557 L16.6779361,5.04777899 L16.7087149,5.03712481 L16.7394936,5.02765444 L16.7702723,5.02055165 L16.8022348,5.01463267 L16.8341974,5.01108128 L16.8661599,5.00752988 L16.8981224,5.00634609 L16.9300849,5.00752988 L16.9620475,5.00989748 L16.99401,5.01344887 L17.0247887,5.01936786 L17.0567512,5.02647064 L17.08753,5.03475722 L17.1183087,5.04541139 L17.1479036,5.05724937 L17.1774985,5.07027113 L17.2059097,5.0844767 L17.233137,5.10104986 L17.2603643,5.11880682 L17.2864079,5.13774757 L17.3112676,5.15787212 L17.3349436,5.17918047 L17.3574357,5.20167262 L17.3799279,5.22534856 L17.4000524,5.2502083 L17.4189932,5.27625184 L17.4367501,5.30229538 L17.4533233,5.32952271 L17.4687126,5.35793384 L17.4817344,5.38752877 L17.4935724,5.4171237 L17.5042266,5.44790242 L17.5136969,5.47868115 L17.5207997,5.50945988 L17.5267187,5.5414224 L17.5302701,5.57338492 L17.5338215,5.60534745 L17.5338215,5.63730997 L17.5338215,5.66927249 L17.5314539,5.70123502 L17.5279025,5.73319754 L17.5219835,5.76397626 L17.5148807,5.79593879 L17.5065942,5.82671751 L17.49594,5.85749624 L17.484102,5.88709117 L17.4710802,5.9166861 L17.4556909,5.94509723 L17.4403015,5.97232456 L17.4225446,5.9995519 L17.4036038,6.02559543 L17.40242,6.02677923 L17.3834793,6.05045517 L17.3633547,6.07294732 L17.3420463,6.09425567 L17.320738,6.11556402 L17.2970621,6.13450477 L17.2733861,6.15344553 L17.2473426,6.17120248 L17.2224828,6.18659185 L17.2189314,6.18895944 L17.1928879,6.20316501 L17.1656606,6.21737057 L17.1384332,6.22920854 L17.1041031,6.24341411 L17.0307077,6.26709005 L16.9596799,6.2872146 L16.8874682,6.30733916 L16.7584344,6.34166927 L16.7300232,6.34877206 L16.6720172,6.372448 L16.5477185,6.42453507 L16.3890896,6.49319531 L16.2032335,6.57487731 L15.9972528,6.66839729 L15.972393,6.67905146 L16.1689034,6.66958108 L16.2718937,6.6624783 L16.3748841,6.65537552 L16.4766906,6.64827274 L16.5773134,6.63998616 L16.6755686,6.63051578 L16.7714561,6.6198616 L16.8661599,6.60920743 L16.9573123,6.59855326 L17.0460971,6.58671528 L17.1313305,6.57369352 L17.2118287,6.56067175 L17.2899593,6.54646618 L17.3621709,6.53226061 L17.384663,6.52634163 L17.3870306,6.50148189 L17.3893982,6.46951937 L17.3953172,6.43755684 L17.40242,6.40677812 L17.4107066,6.37481559 L17.420177,6.34522067 L17.4320149,6.31444194 L17.4438529,6.28484701 L17.4592423,6.25643588 L17.4746316,6.22920854 L17.4923886,6.20198121 L17.5101455,6.17593767 L17.5302701,6.14989414 L17.5515784,6.12621819 L17.5740706,6.10254225 L17.5965627,6.0812339 L17.6214225,6.05992555 L17.647466,6.0409848 L17.6735096,6.02322784 L17.7007369,6.00665468 L17.729148,5.99126532 L17.7587429,5.97705975 L17.7883379,5.96403798 L17.8179328,5.95338381 L17.8487115,5.94391343 L17.8794903,5.93681065 L17.9114528,5.93089166 L17.9434153,5.92615647 L17.9753778,5.92260508 L18.0073403,5.92142129 L18.0393029,5.92142129 L18.0712654,5.92378888 L18.1032279,5.92734027 L18.1351904,5.93207546 L18.1659692,5.93917824 L18.1967479,5.94746482 L18.2275266,5.9569352 L18.2571215,5.96877317 L18.2867165,5.98179494 L18.3163114,5.99600051 L18.3435387,6.01257367 L18.3707661,6.02914683 L18.3968096,6.04808758 L18.4216694,6.06821213 L18.4559995,6.09543947 L18.4974324,6.13332098 L18.5388653,6.17357008 L18.5791144,6.21737057 L18.6181797,6.26472246 L18.6560612,6.31680953 L18.6915751,6.3736318 L18.7259052,6.43755684 L18.7436622,6.48017354 L18.7543164,6.50740087 L18.7637867,6.53462821 L18.7697057,6.55238517 L18.7779923,6.58316389 L18.7850951,6.61394262 L18.7886465,6.63169958 L18.7933817,6.65300792 L18.796933,6.67550007 L18.7993006,6.69799222 L18.8004844,6.71456538 L18.802852,6.73824132 L18.8040358,6.76191726 L18.8040358,6.78559321 L18.802852,6.80216637 L18.802852,6.82584231 L18.8004844,6.84951825 L18.7981168,6.87319419 L18.796933,6.88976735 L18.7933817,6.9134433 L18.7886465,6.93593544 L18.7839113,6.95961139 L18.7791761,6.97500075 L18.7732571,6.9974929 L18.7673381,7.01998504 L18.7602353,7.04129339 L18.7543164,7.05668275 L18.7424784,7.08627768 L18.7294566,7.11705641 L18.72117,7.13244577 L18.7081483,7.15848931 L18.6927589,7.18453285 L18.669083,7.22359815 L18.6276501,7.28042041 L18.5850334,7.33132369 L18.5400491,7.37512419 L18.4962486,7.41418949 L18.4524481,7.44970341 L18.4086476,7.48048213 L18.3660309,7.50770947 L18.3234142,7.533753 L18.2807975,7.55624515 L18.2381808,7.5775535 L18.1967479,7.59649425 L18.1505798,7.61661881 L18.0700816,7.64858133 L17.9836644,7.67817626 L17.8960634,7.70421979 L17.8072786,7.72907953 L17.7149425,7.75157168 L17.6214225,7.77169623 L17.5255349,7.79063699 L17.4272797,7.80839394 L17.3278408,7.8249671 L17.2260342,7.84035647 L17.1218601,7.85456203 L17.0153183,7.8675838 L16.9087766,7.87942177 L16.7998673,7.89125974 L16.6897741,7.90073012 L16.5784972,7.9102005 L16.4672203,7.91967088 L16.3547595,7.92677366 L16.241115,7.93387644 L16.0161935,7.94571441 L15.7924559,7.95400099 L15.5710858,7.95991998 L15.3544509,7.96347137 L15.1449188,7.96465517 L14.9448571,7.96228757 L14.7542658,7.95873618 L14.5755124,7.9528172 L14.4109646,7.94571441 L14.2618062,7.93506024 Z M16.6187463,5.07263873 L16.6246653,5.07027113 L16.6140111,5.07500632 L16.5998055,5.0832929 L16.6187463,5.07263873 Z" id="Shape" transform="translate(16.057035, 6.485501) rotate(176.597174) translate(-16.057035, -6.485501) "></path>
            <polygon id="Shape" points="16.0896909 5.84115427 16.1402598 5.84825167 16.1900402 5.85939063 16.2387362 5.87457117 16.2860521 5.89359612 16.3316923 5.91626835 16.375361 5.94258785 16.4167624 5.97235747 16.4556995 6.00538006 16.4917779 6.04145847 16.5248991 6.08019841 16.5547673 6.12159986 16.5811854 6.16516997 16.6039562 6.21081015 16.6230797 6.2581261 16.6383588 6.3068221 19.5384324 17.0841145 19.5497685 17.1337962 19.5569644 17.1843652 19.5601188 17.2352298 19.5591331 17.286193 19.5540072 17.3369591 19.5449383 17.3871337 19.5317293 17.4364212 19.5146758 17.4845257 19.4937779 17.5310531 19.4692328 17.5757075 19.4411389 17.6182919 19.4097921 17.6585104 19.3751923 17.6960675 19.3377339 17.7306673 19.2976139 17.7621127 19.2551281 17.7903051 19.2104737 17.8149488 19.1639463 17.8359453 19.1159403 17.8530973 19.0667515 17.8664049 19.0165768 17.8755724 18.9658108 17.8807968 18.9148475 17.8818812 18.8638843 17.8788253 18.813414 17.8717279 18.7636336 17.860589 18.7149376 17.845507 18.6676217 17.8264821 18.6218829 17.8037113 18.5782143 17.7773918 18.5368128 17.7476221 18.4979743 17.7145996 18.4618959 17.6786197 18.4287747 17.6397812 18.3989065 17.5984783 18.3724884 17.5548096 18.3496191 17.5091695 18.3304955 17.4619521 18.315315 17.4132561 15.4151429 6.63596369 15.4039053 6.58618337 15.3967094 6.53571302 15.393555 6.4847498 15.3945407 6.43378657 15.399568 6.3830205 15.4087355 6.33284588 15.421846 6.28355843 15.438998 6.23555245 15.4597973 6.1890251 15.484441 6.14427209 15.5124363 6.10168774 15.5438817 6.06156775 15.5783829 6.02401071 15.6158414 5.98941092 15.6559613 5.95786696 15.6985457 5.92967453 15.7432001 5.90503081 15.7896289 5.88413293 15.8376349 5.86688232 15.8869223 5.85367329 15.937097 5.84440725 15.987863 5.83918278 16.0388263 5.83819703"></polygon>
            <polygon id="Shape" points="27.3656737 5.83997138 27.4292545 5.84825167 27.491751 5.86293933 27.5523746 5.88393578 27.6106323 5.91084673 27.6658343 5.9435736 27.717389 5.98172208 27.7649021 6.02489789 27.8077821 6.07260814 27.8455363 6.12445854 27.8779675 6.17975906 27.9045827 6.23821397 27.9250863 6.29893611 27.9394782 6.3614326 27.9473642 6.42511198 27.9488428 6.48928424 27.9437169 6.55325935 27.9322822 6.61634729 27.9144402 6.6779566 27.8903879 6.73749584 27.8637727 6.79516216 27.8335102 6.85756007 27.8020648 6.91985941 27.7694365 6.98196159 27.7357239 7.04386663 27.7009269 7.10557452 27.6649471 7.16718383 27.6278829 7.22849742 27.5897345 7.289811 27.5505017 7.35092744 27.5102831 7.41184673 27.4689802 7.47276602 27.4266916 7.53348816 27.3834172 7.59411172 27.3390585 7.65463671 27.2928269 7.71644317 27.2004622 7.83562023 27.1032673 7.95598018 27.0023266 8.07604441 26.8977387 8.19591149 26.789602 8.31548284 26.6780152 8.43495562 26.5630769 8.55423125 26.444787 8.6734083 26.3233427 8.79248678 26.1986455 8.91136811 26.0707938 9.03024944 25.9399849 9.14893362 25.8062188 9.26751922 25.6694954 9.38610483 25.5301105 9.50449328 25.3878669 9.62278316 25.2429618 9.74097447 25.0954938 9.8590672 24.9454628 9.97696278 24.793066 10.0947598 24.6382048 10.2124582 24.4810764 10.3298609 24.3217794 10.4471651 24.1602151 10.564272 23.9966794 10.6811819 23.8310735 10.7978945 23.6635948 10.9143115 23.4942431 11.0305313 23.3231171 11.1464554 23.1503153 11.2620838 22.9758377 11.3774164 22.7997829 11.4924533 22.6223481 11.6070959 22.4434347 11.7214428 22.2632397 11.8353954 22.0818619 11.9488551 21.8993012 12.0620191 21.7155576 12.1746902 21.5309268 12.2868684 21.3453103 12.3985538 21.1589051 12.5098448 20.9716128 12.6205444 20.7837291 12.7306526 20.5951553 12.8402679 20.4060886 12.9492917 20.2160362 13.0579213 19.8364243 13.2726174 19.4553337 13.4848492 19.0739474 13.6942223 18.693054 13.9006381 18.3130478 14.1037024 17.9346187 14.3035137 17.5585555 14.4997763 17.1853509 14.6921945 16.815695 14.8807683 16.4500807 15.065202 16.0893952 15.2453969 15.7341312 15.4211559 15.3848804 15.592282 15.0423326 15.7585778 14.7071779 15.9198464 14.3799093 16.075989 14.0614138 16.22671 13.7520857 16.3719108 13.4526152 16.5112958 13.1637907 16.6448647 12.8860067 16.7723221 12.6201501 16.8934706 12.3663198 17.008409 11.8997648 17.2174863 11.4902846 17.3987656 11.1434981 17.5505709 10.864334 17.6713252 10.6579182 17.7597469 10.4871865 17.8319037 10.4269572 17.8538859 10.3647564 17.8696579 10.3012742 17.8790225 10.2372005 17.8819797 10.1731268 17.878431 10.1097432 17.8683764 10.0477396 17.852013 9.98770744 17.8293407 9.93023828 17.8008526 9.87602208 17.7666471 9.82545316 17.7271186 9.77922153 17.6826613 9.73762292 17.6337681 9.70124878 17.580932 9.67039484 17.5246457 9.64545539 17.4655994 9.62652901 17.4042858 9.61391142 17.341395 9.60779978 17.2775184 9.6080955 17.2133462 9.61489717 17.1495682 9.62810621 17.086776 9.64762404 17.0256596 9.67325351 16.9668104 9.70469891 16.9109184 9.74156592 16.8584765 9.7836574 16.8099777 9.8303819 16.7660133 9.88134513 16.7269776 9.93595562 16.6933636 9.99362194 16.6653683 10.1617907 16.5941972 10.3635735 16.5078456 10.6381046 16.3890629 10.980061 16.2394262 11.3843166 16.0605127 11.84614 15.8535054 12.0963231 15.7402429 12.3592224 15.6203758 12.6338521 15.4943971 12.9194235 15.3623067 13.2155425 15.2244004 13.5214205 15.0808754 13.8363673 14.9318301 14.1597915 14.7775604 14.4911017 14.6180662 14.829608 14.4537419 15.1746201 14.2847845 15.5255468 14.1111941 15.8817964 13.9332664 16.2425806 13.7511986 16.6073077 13.5651877 16.9752878 13.3753325 17.346028 13.1819285 17.7187397 12.985173 18.0927329 12.7851645 18.4675146 12.5821988 18.8422964 12.3763744 19.2164867 12.1679871 19.589987 11.9568396 19.7753078 11.8508716 19.9605301 11.7440164 20.1451609 11.6367669 20.3290031 11.528926 20.5120566 11.4206908 20.6942231 11.3120612 20.8754037 11.2029388 21.0555986 11.0935207 21.2346107 10.9837082 21.4123412 10.8736001 21.5888888 10.7631962 21.7639579 10.6524966 21.9375483 10.5415012 22.10966 10.4303087 22.280096 10.3189191 22.4487577 10.2074309 22.6157436 10.0957455 22.780758 9.9839616 22.9438008 9.87207909 23.1047737 9.76019657 23.2635778 9.64821549 23.4202133 9.53633298 23.5744831 9.42445046 23.726387 9.31256795 23.8758265 9.20088259 24.0226046 9.0892958 24.1668196 8.97790617 24.308176 8.86671368 24.4467723 8.75581692 24.58251 8.6451173 24.7150932 8.53471342 24.8447192 8.4248024 24.9710922 8.31518711 25.0942123 8.20596613 25.2138822 8.09733659 25.3302006 7.98919992 25.4429703 7.8816547 25.5520927 7.77479951 25.6574693 7.66863435 25.7591 7.5631592 25.8567877 7.45857123 25.9505324 7.35477186 26.0402356 7.25205682 26.1257986 7.15022895 26.2071229 7.04968255 26.2851942 6.94884043 26.3210755 6.90093302 26.3568582 6.85203987 26.391458 6.80354102 26.425072 6.7553379 26.4575032 6.70752907 26.4887514 6.66011454 26.5189153 6.61299574 26.5479949 6.56646839 26.5758916 6.52023676 26.6026054 6.47449801 26.6281363 6.42925213 26.6525829 6.38440055 26.6758466 6.34014042 26.6979273 6.29637316 26.7189238 6.25309878 26.7410046 6.20528996 26.7708728 6.14851081 26.8063597 6.09498464 26.8470712 6.04540147 26.8925142 6.00015559 26.9423931 5.95973988 26.9960178 5.92464721 27.0529941 5.89507474 27.1126319 5.87151534 27.1743398 5.85396901 27.2375263 5.84283005 27.3015015 5.83819703"></polygon>
        </g>
    </g>
</svg>